<mxfile host="app.diagrams.net" modified="2023-03-28T13:03:20.354Z" agent="Mozilla/5.0 (Macintosh; Intel Mac OS X 10_15_7) AppleWebKit/537.36 (KHTML, like Gecko) Chrome/110.0.0.0 Safari/537.36 Edg/110.0.1587.63" etag="Co0cfT4qFjiZXvwp1c4k" version="21.1.1" type="device">
  <diagram name="Page-1" id="VZnwENAGP3kPD1gLUGfE">
    <mxGraphModel dx="1115" dy="747" grid="1" gridSize="10" guides="1" tooltips="1" connect="1" arrows="1" fold="1" page="1" pageScale="1" pageWidth="850" pageHeight="1100" background="none" math="0" shadow="0">
      <root>
        <mxCell id="0" />
        <mxCell id="1" parent="0" />
        <mxCell id="4_WsoptqF9nfw9GYhyMF-2" value="" style="rounded=0;whiteSpace=wrap;html=1;strokeColor=#FFFFFF;fontColor=#393C56;fillColor=#FFFFFF;" parent="1" vertex="1">
          <mxGeometry x="430" y="100" width="800" height="700" as="geometry" />
        </mxCell>
        <mxCell id="dQ3a9esEylfcC-lkuKPx-1" value="&lt;font style=&quot;font-size: 14px;&quot;&gt;AWS Cloud&lt;/font&gt;" style="points=[[0,0],[0.25,0],[0.5,0],[0.75,0],[1,0],[1,0.25],[1,0.5],[1,0.75],[1,1],[0.75,1],[0.5,1],[0.25,1],[0,1],[0,0.75],[0,0.5],[0,0.25]];outlineConnect=0;gradientColor=none;html=1;whiteSpace=wrap;fontSize=12;fontStyle=0;container=0;pointerEvents=0;collapsible=0;recursiveResize=0;shape=mxgraph.aws4.group;grIcon=mxgraph.aws4.group_aws_cloud_alt;strokeColor=#232F3E;fillColor=none;verticalAlign=top;align=left;spacingLeft=30;fontColor=#232F3E;dashed=0;" parent="1" vertex="1">
          <mxGeometry x="490" y="214" width="670" height="546" as="geometry" />
        </mxCell>
        <mxCell id="dQ3a9esEylfcC-lkuKPx-136" value="&lt;font style=&quot;font-size: 14px;&quot;&gt;&lt;b&gt;&amp;nbsp;Internet&lt;/b&gt;&lt;/font&gt;" style="outlineConnect=0;dashed=0;verticalLabelPosition=middle;verticalAlign=middle;align=left;html=1;shape=mxgraph.aws3.internet_3;fillColor=#D2D3D3;gradientColor=none;labelPosition=right;" parent="1" vertex="1">
          <mxGeometry x="809.75" y="124" width="79.5" height="54" as="geometry" />
        </mxCell>
        <mxCell id="dQ3a9esEylfcC-lkuKPx-138" value="" style="edgeStyle=orthogonalEdgeStyle;html=1;endArrow=block;elbow=vertical;startArrow=block;startFill=1;endFill=1;strokeColor=#545B64;rounded=0;exitX=0.5;exitY=1;exitDx=0;exitDy=0;exitPerimeter=0;" parent="1" source="dQ3a9esEylfcC-lkuKPx-136" target="dQ3a9esEylfcC-lkuKPx-15" edge="1">
          <mxGeometry width="100" relative="1" as="geometry">
            <mxPoint x="675" y="320" as="sourcePoint" />
            <mxPoint x="775" y="320" as="targetPoint" />
          </mxGeometry>
        </mxCell>
        <mxCell id="dQ3a9esEylfcC-lkuKPx-7" value="Public subnet&lt;br&gt;10.0.0.0/24" style="points=[[0,0],[0.25,0],[0.5,0],[0.75,0],[1,0],[1,0.25],[1,0.5],[1,0.75],[1,1],[0.75,1],[0.5,1],[0.25,1],[0,1],[0,0.75],[0,0.5],[0,0.25]];outlineConnect=0;gradientColor=none;html=1;whiteSpace=wrap;fontSize=12;fontStyle=0;container=1;pointerEvents=0;collapsible=0;recursiveResize=0;shape=mxgraph.aws4.group;grIcon=mxgraph.aws4.group_security_group;grStroke=0;strokeColor=#248814;fillColor=#E6FFCC;verticalAlign=top;align=left;spacingLeft=30;fontColor=#248814;dashed=0;" parent="1" vertex="1">
          <mxGeometry x="709.5" y="399" width="225" height="113" as="geometry" />
        </mxCell>
        <mxCell id="dQ3a9esEylfcC-lkuKPx-6" value="&lt;font color=&quot;#000000&quot; style=&quot;font-size: 14px;&quot;&gt;VPC&lt;br&gt;10.0.0.0/16&lt;/font&gt;" style="points=[[0,0],[0.25,0],[0.5,0],[0.75,0],[1,0],[1,0.25],[1,0.5],[1,0.75],[1,1],[0.75,1],[0.5,1],[0.25,1],[0,1],[0,0.75],[0,0.5],[0,0.25]];outlineConnect=0;gradientColor=none;html=1;whiteSpace=wrap;fontSize=12;fontStyle=0;container=0;pointerEvents=0;collapsible=0;recursiveResize=0;shape=mxgraph.aws4.group;grIcon=mxgraph.aws4.group_vpc;strokeColor=#248814;fillColor=none;verticalAlign=top;align=left;spacingLeft=30;fontColor=#AAB7B8;dashed=0;" parent="1" vertex="1">
          <mxGeometry x="670" y="260" width="330" height="470" as="geometry" />
        </mxCell>
        <mxCell id="dQ3a9esEylfcC-lkuKPx-16" value="Route Table" style="sketch=0;outlineConnect=0;fontColor=#232F3E;gradientColor=none;fillColor=#4D27AA;strokeColor=none;dashed=0;verticalLabelPosition=bottom;verticalAlign=top;align=center;html=1;fontSize=14;fontStyle=1;aspect=fixed;pointerEvents=1;shape=mxgraph.aws4.route_table;" parent="1" vertex="1">
          <mxGeometry x="935.5" y="273" width="47.21" height="46" as="geometry" />
        </mxCell>
        <mxCell id="dQ3a9esEylfcC-lkuKPx-15" value="IGW" style="sketch=0;outlineConnect=0;fontColor=#232F3E;gradientColor=none;fillColor=#4D27AA;strokeColor=none;dashed=0;verticalLabelPosition=bottom;verticalAlign=top;align=left;html=1;fontSize=14;fontStyle=1;aspect=fixed;pointerEvents=1;shape=mxgraph.aws4.internet_gateway;labelPosition=right;" parent="1" vertex="1">
          <mxGeometry x="815" y="229" width="69" height="69" as="geometry" />
        </mxCell>
        <mxCell id="dQ3a9esEylfcC-lkuKPx-36" value="Task &lt;br&gt;Definition" style="sketch=0;outlineConnect=0;fontColor=#232F3E;gradientColor=none;fillColor=#D45B07;strokeColor=none;dashed=0;verticalLabelPosition=bottom;verticalAlign=top;align=center;html=1;fontSize=14;fontStyle=1;aspect=fixed;pointerEvents=1;shape=mxgraph.aws4.ecs_task;" parent="1" vertex="1">
          <mxGeometry x="614" y="412.1099999999999" width="32.29" height="41.89" as="geometry" />
        </mxCell>
        <mxCell id="dQ3a9esEylfcC-lkuKPx-10" value="&amp;nbsp;ESC&lt;br&gt;" style="sketch=0;points=[[0,0,0],[0.25,0,0],[0.5,0,0],[0.75,0,0],[1,0,0],[0,1,0],[0.25,1,0],[0.5,1,0],[0.75,1,0],[1,1,0],[0,0.25,0],[0,0.5,0],[0,0.75,0],[1,0.25,0],[1,0.5,0],[1,0.75,0]];outlineConnect=0;fontColor=#232F3E;gradientColor=#F78E04;gradientDirection=north;fillColor=#D05C17;strokeColor=#ffffff;dashed=0;verticalLabelPosition=middle;verticalAlign=middle;align=left;html=1;fontSize=14;fontStyle=1;aspect=fixed;shape=mxgraph.aws4.resourceIcon;resIcon=mxgraph.aws4.ecs;horizontal=1;fontFamily=Helvetica;labelPosition=right;" parent="1" vertex="1">
          <mxGeometry x="520" y="399" width="50" height="50" as="geometry" />
        </mxCell>
        <mxCell id="dQ3a9esEylfcC-lkuKPx-103" value="RDS&lt;br&gt;" style="sketch=0;points=[[0,0,0],[0.25,0,0],[0.5,0,0],[0.75,0,0],[1,0,0],[0,1,0],[0.25,1,0],[0.5,1,0],[0.75,1,0],[1,1,0],[0,0.25,0],[0,0.5,0],[0,0.75,0],[1,0.25,0],[1,0.5,0],[1,0.75,0]];outlineConnect=0;fontColor=#232F3E;gradientColor=#4D72F3;gradientDirection=north;fillColor=#3334B9;strokeColor=#ffffff;dashed=0;verticalLabelPosition=middle;verticalAlign=middle;align=center;html=1;fontSize=14;fontStyle=1;aspect=fixed;shape=mxgraph.aws4.resourceIcon;resIcon=mxgraph.aws4.rds;labelPosition=right;" parent="1" vertex="1">
          <mxGeometry x="520" y="568.5" width="47" height="47" as="geometry" />
        </mxCell>
        <mxCell id="dQ3a9esEylfcC-lkuKPx-107" style="edgeStyle=orthogonalEdgeStyle;rounded=0;orthogonalLoop=1;jettySize=auto;html=1;exitX=0.5;exitY=1;exitDx=0;exitDy=0;exitPerimeter=0;" parent="1" source="dQ3a9esEylfcC-lkuKPx-103" target="dQ3a9esEylfcC-lkuKPx-103" edge="1">
          <mxGeometry relative="1" as="geometry" />
        </mxCell>
        <mxCell id="dQ3a9esEylfcC-lkuKPx-20" value="Private subnet&lt;br&gt;10.0.128.0/24" style="points=[[0,0],[0.25,0],[0.5,0],[0.75,0],[1,0],[1,0.25],[1,0.5],[1,0.75],[1,1],[0.75,1],[0.5,1],[0.25,1],[0,1],[0,0.75],[0,0.5],[0,0.25]];outlineConnect=0;gradientColor=none;html=1;whiteSpace=wrap;fontSize=12;fontStyle=0;container=1;pointerEvents=0;collapsible=0;recursiveResize=0;shape=mxgraph.aws4.group;grIcon=mxgraph.aws4.group_security_group;grStroke=0;strokeColor=#147EBA;fillColor=#CCE5FF;verticalAlign=top;align=left;spacingLeft=30;fontColor=#147EBA;dashed=0;" parent="1" vertex="1">
          <mxGeometry x="709.5" y="522" width="225" height="160" as="geometry" />
        </mxCell>
        <mxCell id="dQ3a9esEylfcC-lkuKPx-104" value="Master" style="sketch=0;outlineConnect=0;fontColor=#232F3E;gradientColor=none;fillColor=#2E27AD;strokeColor=none;dashed=0;verticalLabelPosition=bottom;verticalAlign=top;align=center;html=1;fontSize=12;fontStyle=0;aspect=fixed;pointerEvents=1;shape=mxgraph.aws4.rds_mysql_instance;" parent="dQ3a9esEylfcC-lkuKPx-20" vertex="1">
          <mxGeometry x="111" y="59" width="58" height="58" as="geometry" />
        </mxCell>
        <mxCell id="dQ3a9esEylfcC-lkuKPx-93" value="&lt;font style=&quot;font-size: 13px;&quot;&gt;&lt;b&gt;&lt;font style=&quot;font-size: 13px;&quot;&gt;&amp;nbsp;Availability Zone&lt;/font&gt;&lt;/b&gt;&lt;br&gt;&lt;/font&gt;&amp;nbsp;ap-northeast-1a" style="fillColor=none;strokeColor=#147EBA;dashed=1;verticalAlign=top;fontStyle=0;fontColor=#147EBA;whiteSpace=wrap;html=1;labelPosition=center;verticalLabelPosition=middle;align=left;" parent="1" vertex="1">
          <mxGeometry x="689" y="352" width="261" height="360" as="geometry" />
        </mxCell>
        <mxCell id="dQ3a9esEylfcC-lkuKPx-112" value="" style="edgeStyle=orthogonalEdgeStyle;html=1;endArrow=block;elbow=vertical;startArrow=block;startFill=1;endFill=1;strokeColor=#545B64;rounded=0;" parent="1" target="dQ3a9esEylfcC-lkuKPx-104" edge="1">
          <mxGeometry width="100" relative="1" as="geometry">
            <mxPoint x="849.5" y="489" as="sourcePoint" />
            <mxPoint x="849.5" y="572" as="targetPoint" />
            <Array as="points" />
          </mxGeometry>
        </mxCell>
        <mxCell id="dQ3a9esEylfcC-lkuKPx-105" value="" style="dashed=1;verticalAlign=middle;fontStyle=0;whiteSpace=wrap;html=1;strokeWidth=1;fillColor=none;strokeColor=#4563cd;dashPattern=8 8;labelPosition=right;verticalLabelPosition=middle;align=left;" parent="1" vertex="1">
          <mxGeometry x="517.47" y="568.5" width="452.53" height="110" as="geometry" />
        </mxCell>
        <mxCell id="dQ3a9esEylfcC-lkuKPx-34" value="" style="dashed=1;verticalAlign=middle;fontStyle=0;whiteSpace=wrap;html=1;strokeWidth=1;fillColor=none;strokeColor=#d56215;dashPattern=8 8;labelPosition=right;verticalLabelPosition=middle;align=left;" parent="1" vertex="1">
          <mxGeometry x="520" y="399" width="450" height="109.5" as="geometry" />
        </mxCell>
        <mxCell id="NIBdxaEh6crGNWrItZmW-1" value="&lt;font style=&quot;font-size: 14px;&quot;&gt;&lt;b&gt;Fargate Task&lt;br style=&quot;border-color: var(--border-color);&quot;&gt;&lt;/b&gt;&lt;span style=&quot;border-color: var(--border-color);&quot;&gt;(create-tables)&lt;/span&gt;&lt;/font&gt;" style="sketch=0;outlineConnect=0;fontColor=#232F3E;gradientColor=none;fillColor=#D45B07;strokeColor=none;dashed=0;verticalLabelPosition=bottom;verticalAlign=top;align=center;html=1;fontSize=12;fontStyle=0;aspect=fixed;pointerEvents=1;shape=mxgraph.aws4.container_2;" parent="1" vertex="1">
          <mxGeometry x="825.5" y="415.5" width="48" height="31" as="geometry" />
        </mxCell>
        <mxCell id="EMWH4TtMN0Qx2uoHLK-v-1" value="" style="edgeStyle=orthogonalEdgeStyle;html=1;endArrow=block;elbow=vertical;startArrow=block;startFill=1;endFill=1;strokeColor=#545B64;rounded=0;" edge="1" parent="1" source="dQ3a9esEylfcC-lkuKPx-15" target="NIBdxaEh6crGNWrItZmW-1">
          <mxGeometry width="100" relative="1" as="geometry">
            <mxPoint x="820" y="600" as="sourcePoint" />
            <mxPoint x="920" y="600" as="targetPoint" />
          </mxGeometry>
        </mxCell>
        <mxCell id="EMWH4TtMN0Qx2uoHLK-v-3" value="" style="group" vertex="1" connectable="0" parent="1">
          <mxGeometry x="1020" y="550" width="110" height="180" as="geometry" />
        </mxCell>
        <mxCell id="NIBdxaEh6crGNWrItZmW-7" value="" style="dashed=1;verticalAlign=middle;fontStyle=0;whiteSpace=wrap;html=1;strokeWidth=1;fillColor=none;strokeColor=#d56215;dashPattern=8 8;labelPosition=right;verticalLabelPosition=middle;align=left;" parent="EMWH4TtMN0Qx2uoHLK-v-3" vertex="1">
          <mxGeometry width="110" height="180" as="geometry" />
        </mxCell>
        <mxCell id="dQ3a9esEylfcC-lkuKPx-95" value="&amp;nbsp;ECR" style="sketch=0;points=[[0,0,0],[0.25,0,0],[0.5,0,0],[0.75,0,0],[1,0,0],[0,1,0],[0.25,1,0],[0.5,1,0],[0.75,1,0],[1,1,0],[0,0.25,0],[0,0.5,0],[0,0.75,0],[1,0.25,0],[1,0.5,0],[1,0.75,0]];outlineConnect=0;fontColor=#232F3E;gradientColor=#F78E04;gradientDirection=north;fillColor=#D05C17;strokeColor=#ffffff;dashed=0;verticalLabelPosition=middle;verticalAlign=middle;align=left;html=1;fontSize=14;fontStyle=1;aspect=fixed;shape=mxgraph.aws4.resourceIcon;resIcon=mxgraph.aws4.ecr;labelPosition=right;" parent="EMWH4TtMN0Qx2uoHLK-v-3" vertex="1">
          <mxGeometry width="48" height="48" as="geometry" />
        </mxCell>
        <mxCell id="NIBdxaEh6crGNWrItZmW-6" value="Repository&lt;br&gt;&lt;span style=&quot;font-weight: normal;&quot;&gt;image: &lt;br&gt;create-tables&lt;br&gt;&lt;/span&gt;" style="sketch=0;outlineConnect=0;fontColor=#232F3E;gradientColor=none;fillColor=#D45B07;strokeColor=none;dashed=0;verticalLabelPosition=bottom;verticalAlign=top;align=center;html=1;fontSize=14;fontStyle=1;aspect=fixed;pointerEvents=1;shape=mxgraph.aws4.container_1;labelPosition=center;" parent="EMWH4TtMN0Qx2uoHLK-v-3" vertex="1">
          <mxGeometry x="31" y="74.5" width="48" height="31" as="geometry" />
        </mxCell>
      </root>
    </mxGraphModel>
  </diagram>
</mxfile>
